<svg width="15" height="10" viewBox="0 0 15 10" fill="none" xmlns="http://www.w3.org/2000/svg">
<path d="M12.678 2.12923C12.2876 2.12923 11.9682 1.80985 11.9682 1.41949C11.9682 1.02913 12.2876 0.709744 12.678 0.709744V0H1.32208V0.709744C1.71243 0.709744 2.03182 1.02913 2.03182 1.41949C2.03182 1.80985 1.71243 2.12923 1.32208 2.12923H-0.0974121V7.09744H1.32208C1.71243 7.09744 2.03182 7.41682 2.03182 7.80718C2.03182 8.19754 1.71243 8.51692 1.32208 8.51692V9.22667H12.678V8.51692C12.2876 8.51692 11.9682 8.19754 11.9682 7.80718C11.9682 7.41682 12.2876 7.09744 12.678 7.09744H14.0975V2.12923H12.678ZM12.678 4.9682H11.9682V5.67795H10.5487V4.9682H8.00076C7.85172 5.37986 7.46136 5.67795 7.00002 5.67795C6.53869 5.67795 6.14833 5.37986 5.99929 4.9682H3.45131V5.67795H2.03182V4.9682H1.32208V4.25846H2.03182V3.54872H3.45131V4.25846H5.99929C6.14833 3.84681 6.53869 3.54872 7.00002 3.54872C7.46136 3.54872 7.85172 3.84681 8.00076 4.25846H10.5487V3.54872H11.9682V4.25846H12.678V4.9682Z" fill="white"/>
</svg>
