<svg width="15" height="5" viewBox="0 0 15 5" fill="none" xmlns="http://www.w3.org/2000/svg">
<path d="M12.807 1.93566C11.5166 1.93566 10.8714 0 8.93569 0C7.00002 0 7.00002 1.29044 7.00002 1.29044C7.00002 1.29044 7.00002 0 5.06436 0C3.1287 0 2.48347 1.93566 1.19303 1.93566C0.547809 1.93566 -0.0974121 1.29044 -0.0974121 1.29044C-0.0974121 1.29044 0.547809 4.51655 3.1287 4.51655C6.3548 4.51655 7.00002 2.58089 7.00002 2.58089C7.00002 2.58089 7.64525 4.51655 10.8714 4.51655C13.4522 4.51655 14.0975 1.29044 14.0975 1.29044C14.0975 1.29044 13.4522 1.93566 12.807 1.93566Z" fill="white"/>
</svg>
