<svg width="15" height="13" viewBox="0 0 15 13" fill="none" xmlns="http://www.w3.org/2000/svg">
<path fill-rule="evenodd" clip-rule="evenodd" d="M0.37152 1.37212C0.0302489 1.96151 -0.0810591 2.65627 0.0590024 3.32278C0.199064 3.98929 0.580604 4.58048 1.13025 4.98266C1.67989 5.38484 2.35882 5.5696 3.03646 5.50141C3.7141 5.43322 4.34261 5.1169 4.80111 4.61328L5.49745 5.01547C5.51716 5.08802 5.61337 5.10695 5.66305 5.04938C5.78187 4.91006 5.9133 4.78283 6.05735 4.66769C6.2829 4.48632 6.29394 4.10857 6.04316 3.96426L5.39256 3.5881C5.59602 2.9402 5.55357 2.24005 5.27331 1.62148C4.99305 1.00292 4.49465 0.509349 3.87339 0.23512C3.25213 -0.0391082 2.5516 -0.074752 1.90571 0.135003C1.25983 0.344758 0.713903 0.785197 0.372308 1.37212M1.97317 4.11804C1.79235 4.01523 1.63366 3.87767 1.50621 3.71328C1.37877 3.5489 1.28511 3.36092 1.23061 3.16019C1.17611 2.95945 1.16186 2.74992 1.18867 2.54365C1.21548 2.33738 1.28282 2.13846 1.38683 1.95832C1.49083 1.77819 1.62944 1.62041 1.79467 1.49406C1.9599 1.36771 2.14849 1.27529 2.34958 1.22213C2.55067 1.16896 2.7603 1.1561 2.96638 1.18428C3.17247 1.21245 3.37094 1.28112 3.55038 1.38631C3.90968 1.59695 4.17108 1.94115 4.27753 2.34381C4.38399 2.74646 4.32686 3.17488 4.11861 3.53557C3.91036 3.89625 3.5679 4.15993 3.16596 4.26905C2.76402 4.37818 2.33524 4.32389 1.97317 4.11804ZM7.0644 4.97762C6.76002 5.10593 6.48897 5.30207 6.27194 5.55108C6.05491 5.8001 5.89763 6.0954 5.8121 6.41445L5.49823 7.58632L4.80111 7.98851C4.34177 7.48776 3.71391 7.174 3.03768 7.10727C2.36146 7.04054 1.68437 7.22553 1.13602 7.62683C0.587671 8.02814 0.206571 8.61757 0.065662 9.2823C-0.0752465 9.94704 0.0339346 10.6404 0.372308 11.2297C0.712445 11.8193 1.25847 12.2624 1.90547 12.474C2.55248 12.6855 3.25482 12.6504 3.87757 12.3756C4.50032 12.1008 4.99954 11.6055 5.27933 10.9849C5.55911 10.3644 5.59972 9.66236 5.39335 9.01369L13.8156 4.15116C13.9167 4.09251 13.9981 4.00524 14.0496 3.90037C14.1011 3.7955 14.1204 3.67773 14.1051 3.5619C14.0897 3.44608 14.0404 3.3374 13.9633 3.24957C13.8863 3.16174 13.785 3.0987 13.6721 3.06841L13.1177 2.91936C12.652 2.79478 12.1581 2.82891 11.714 3.01636L7.0644 4.97762ZM1.39592 10.6382C1.29072 10.4588 1.22206 10.2603 1.19388 10.0542C1.1657 9.84813 1.17856 9.63851 1.23173 9.43741C1.2849 9.23632 1.37731 9.04773 1.50366 8.8825C1.63001 8.71727 1.78779 8.57866 1.96793 8.47466C2.14806 8.37066 2.34699 8.30331 2.55325 8.2765C2.75952 8.24969 2.96905 8.26394 3.16979 8.31844C3.37053 8.37294 3.5585 8.46661 3.72289 8.59405C3.88728 8.72149 4.02483 8.88019 4.12764 9.06101C4.33349 9.42307 4.38778 9.85185 4.27866 10.2538C4.16953 10.6557 3.90586 10.9982 3.54517 11.2064C3.18448 11.4147 2.75606 11.4718 2.35341 11.3654C1.95076 11.2589 1.60655 10.9975 1.39592 10.6382Z" fill="white"/>
</svg>
